<?xml version="1.0" standalone="no"?>
<!DOCTYPE svg PUBLIC "-//W3C//DTD SVG 20010904//EN"
 "http://www.w3.org/TR/2001/REC-SVG-20010904/DTD/svg10.dtd">
<svg version="1.0" xmlns="http://www.w3.org/2000/svg"
 width="587.000000pt" height="236.000000pt" viewBox="0 0 587.000000 236.000000"
 preserveAspectRatio="xMidYMid meet">

<g transform="translate(0.000000,236.000000) scale(0.100000,-0.100000)"
fill="#000000" stroke="none">
<path d="M4615 1952 c-16 -11 -56 -48 -87 -84 -53 -60 -57 -68 -51 -102 7 -41
18 -47 27 -12 3 13 48 61 101 107 94 81 95 83 73 96 -30 16 -28 16 -63 -5z"/>
<path d="M4743 1928 c-115 -98 -203 -182 -203 -193 0 -7 11 -16 24 -19 30 -7
41 -38 26 -66 -15 -28 -6 -50 19 -50 18 0 19 3 9 30 -22 64 -6 91 91 158 49
34 94 62 101 62 23 0 -11 -39 -85 -97 -85 -65 -87 -72 -46 -165 l20 -47 38 15
c49 20 55 27 47 49 -7 16 -10 15 -30 -10 -20 -26 -24 -27 -30 -11 -4 10 -16
21 -26 25 -17 6 -13 11 27 31 25 13 60 39 76 58 37 41 49 35 26 -14 -10 -19
-15 -39 -12 -43 2 -5 25 -14 50 -20 56 -14 58 -31 4 -31 -25 0 -38 -4 -34 -10
12 -19 -15 -38 -83 -61 l-66 -22 -18 23 c-25 31 -122 64 -148 50 -28 -15 -75
-12 -109 8 -34 19 -45 50 -12 32 57 -30 151 5 151 56 0 22 -4 24 -49 24 -44 0
-49 -3 -55 -25 -4 -14 -11 -25 -16 -25 -15 0 -12 38 3 43 23 8 -1 18 -57 24
l-56 6 0 -67 c0 -64 1 -67 39 -104 64 -61 215 -141 312 -165 25 -6 27 -4 33
32 3 21 15 49 26 62 l20 24 -6 -71 -7 -72 39 -42 c22 -23 62 -54 89 -69 45
-25 50 -31 53 -66 5 -56 -16 -162 -42 -221 -48 -104 -134 -176 -325 -274 -76
-38 -146 -83 -181 -115 -64 -56 -111 -75 -189 -75 -75 0 -65 21 20 42 38 9 86
27 105 39 34 20 35 23 28 63 -11 67 -53 137 -123 206 -102 99 -237 160 -359
160 -60 0 -106 -26 -194 -108 -26 -24 -52 -42 -58 -40 -19 6 56 102 119 151
33 27 61 50 61 52 0 16 -49 129 -74 170 -129 215 -318 344 -506 346 -155 2
-281 -63 -388 -200 l-19 -25 -19 25 c-80 102 -207 181 -323 198 -133 21 -296
-38 -417 -151 -84 -79 -152 -185 -278 -435 -90 -178 -117 -223 -171 -280 -34
-38 -85 -81 -112 -96 -98 -53 -253 -72 -359 -43 -236 63 -425 314 -441 587 -7
119 8 215 48 296 53 109 148 161 273 150 l61 -6 -35 17 c-27 13 -62 17 -150
17 -111 0 -118 -1 -184 -34 -157 -77 -241 -218 -266 -444 -18 -163 2 -324 61
-478 109 -286 358 -463 726 -518 106 -16 362 -14 468 4 343 59 666 204 871
389 65 59 171 201 212 284 14 28 30 52 34 52 4 0 20 -23 34 -52 109 -214 264
-361 519 -488 317 -158 615 -223 918 -200 199 15 334 51 492 133 112 57 245
190 302 302 85 168 108 269 107 480 -1 236 -46 439 -139 626 -66 131 -187 279
-229 279 -9 0 -32 -15 -53 -32z"/>
<path d="M4405 1898 c-25 -29 -48 -64 -52 -76 -8 -32 26 -76 61 -80 28 -3 28
-3 21 38 -7 41 -6 44 45 95 50 50 51 54 32 64 -38 20 -60 12 -107 -41z"/>
</g>
</svg>
